<?xml version="1.0" encoding="UTF-8"?>
<svg version="1.1" xmlns="http://www.w3.org/2000/svg" width="1453" height="317">
<path d="M0 0 C64.02 0 128.04 0 194 0 C194 11.88 194 23.76 194 36 C193 37 193 37 190.61243343 37.12304783 C189.00989633 37.12166514 189.00989633 37.12166514 187.37498474 37.12025452 C185.54284424 37.12231651 185.54284424 37.12231651 183.6736908 37.12442017 C182.30776953 37.12088056 180.94184852 37.11724574 179.57592773 37.11352539 C178.14722699 37.11324352 176.7185261 37.11340124 175.28982544 37.1139679 C171.39950028 37.11425589 167.50920569 37.10835887 163.61888766 37.10139394 C159.55761795 37.0951607 155.49634761 37.09455663 151.43507385 37.09336853 C143.73921067 37.09025512 136.04336162 37.08204161 128.34750468 37.07201904 C119.58827886 37.06085819 110.82905239 37.05534753 102.06982124 37.05032361 C84.04653925 37.03985901 66.02327127 37.02205896 48 37 C48 41.95 48 46.9 48 52 C87.27 52 126.54 52 167 52 C167 58.27 167 64.54 167 71 C128.06 71.33 89.12 71.66 49 72 C48.67 76.62 48.34 81.24 48 86 C96.18 86 144.36 86 194 86 C194 98.21 194 110.42 194 123 C129.98 123 65.96 123 0 123 C0 82.41 0 41.82 0 0 Z " fill="#F6B11A" transform="translate(256,80)"/>
<path d="M0 0 C1.10375977 -0.00014603 2.20751953 -0.00029205 3.34472656 -0.0004425 C6.95355266 0.00024811 10.56232562 0.00800026 14.17114258 0.01586914 C16.68890861 0.01773635 19.206675 0.01915882 21.72444153 0.02015686 C27.64917496 0.02357072 33.57389165 0.03143328 39.49861652 0.04150635 C46.91484581 0.05383805 54.33107751 0.05916372 61.74731445 0.06469727 C74.95761039 0.0753925 88.16789092 0.09224531 101.37817383 0.11352539 C101.40704366 4.09267698 101.42492789 8.07180192 101.44067383 12.05102539 C101.44905273 13.18733398 101.45743164 14.32364258 101.46606445 15.49438477 C101.46928711 16.57397461 101.47250977 17.65356445 101.47583008 18.76586914 C101.48106689 19.76610107 101.48630371 20.76633301 101.49169922 21.796875 C101.37817383 24.11352539 101.37817383 24.11352539 100.37817383 25.11352539 C90.14008905 26.06848775 79.54881858 24.23745263 69.37817383 23.11352539 C70.4087793 24.01844727 70.4087793 24.01844727 71.46020508 24.94165039 C72.36125977 25.74086914 73.26231445 26.54008789 74.19067383 27.36352539 C75.08399414 28.15243164 75.97731445 28.94133789 76.89770508 29.75415039 C82.12690132 34.72806303 84.24735792 39.50742855 84.45239258 46.72680664 C84.01598764 55.54218637 81.19403023 62.83077435 74.69067383 68.92602539 C54.35741369 84.97464291 25.87168022 84.30575863 1.29418945 84.68481445 C-11.2338609 84.61379189 -11.2338609 84.61379189 -22.62182617 89.11352539 C-22.87204187 92.1971841 -22.87204187 92.1971841 -22.62182617 95.11352539 C-18.45084672 96.1163487 -14.52339602 96.24997586 -10.23974609 96.27124023 C-9.51369171 96.27632095 -8.78763733 96.28140167 -8.0395813 96.28663635 C-6.46711098 96.29730747 -4.89462578 96.30594033 -3.32213402 96.31275558 C-0.81789362 96.32462596 1.68618054 96.34410484 4.19035339 96.36587524 C11.3094614 96.42717679 18.42855498 96.48121891 25.54785156 96.51489258 C29.91099776 96.53607812 34.27384374 96.57157545 38.63681602 96.61565018 C40.28425195 96.6296338 41.93174103 96.63849182 43.57923317 96.64170456 C75.20224633 96.70982941 75.20224633 96.70982941 85.95629883 106.55883789 C93.76689909 115.13254278 92.37817383 127.34783359 92.37817383 138.11352539 C76.86817383 138.11352539 61.35817383 138.11352539 45.37817383 138.11352539 C44.88317383 133.65852539 44.88317383 133.65852539 44.37817383 129.11352539 C35.74007135 124.79447415 25.31743803 125.95699349 15.82852745 125.9142952 C13.40032204 125.90233134 10.97228098 125.88283856 8.54414368 125.86117554 C1.64716169 125.80013329 -5.24979694 125.74564749 -12.14697266 125.7121582 C-16.38619853 125.69103601 -20.62511152 125.65560552 -24.86415672 125.6114006 C-26.46383132 125.59739029 -28.06356111 125.58855265 -29.66329384 125.58534622 C-42.10614412 125.55775851 -55.60470525 125.50224734 -65.62182617 117.11352539 C-70.46552954 111.89722946 -70.93905776 107.73148737 -70.82104492 100.83227539 C-70.48360657 96.22723433 -69.30069726 93.60830974 -65.84057617 90.52758789 C-59.90309366 86.11750124 -53.80152514 84.4858476 -46.62182617 83.11352539 C-45.5622168 82.90856445 -44.50260742 82.70360352 -43.41088867 82.49243164 C-40.81785273 82.00915373 -38.22328333 81.54880858 -35.62182617 81.11352539 C-36.64920898 80.82219727 -37.6765918 80.53086914 -38.73510742 80.23071289 C-52.40548934 76.24076115 -64.73111628 71.77687842 -72.00073242 58.61743164 C-75.81453303 49.67426855 -76.33581206 39.03763841 -73.18432617 29.80102539 C-67.9306578 18.722237 -58.61112665 11.66875645 -47.37182617 7.48852539 C-31.7421663 1.94725041 -16.55664935 -0.05852578 0 0 Z M-29.49682617 36.86352539 C-31.20480626 40.27948557 -31.35325358 43.43508462 -30.62182617 47.11352539 C-27.23132496 52.80081774 -22.88988885 55.22402244 -16.62182617 57.11352539 C-0.70070686 60.60743686 19.7443811 61.67676384 34.33911133 53.52368164 C37.41830829 51.39419869 38.95055087 49.58060972 40.37817383 46.11352539 C40.78656723 41.60344177 39.9745722 38.88032329 37.19067383 35.30102539 C27.54015056 27.79506285 16.79960606 27.77086104 5.06567383 27.80102539 C3.82366211 27.78491211 2.58165039 27.76879883 1.30200195 27.75219727 C-10.18591487 27.74617319 -20.85341769 28.79634414 -29.49682617 36.86352539 Z " fill="#F19E0F" transform="translate(726.621826171875,105.886474609375)"/>
<path d="M0 0 C2.48534022 0.00373909 4.97068194 0.00658182 7.45602417 0.00857544 C13.93642383 0.0161414 20.41673109 0.03572789 26.89709473 0.0579834 C33.53425004 0.07859505 40.17141477 0.08760962 46.80859375 0.09765625 C59.78649732 0.11898169 72.76433745 0.15263558 85.7421875 0.1953125 C85.96792345 3.79861139 86.16977875 7.40285949 86.3671875 11.0078125 C86.43164062 12.03197266 86.49609375 13.05613281 86.5625 14.11132812 C86.6140625 15.09423828 86.665625 16.07714844 86.71875 17.08984375 C86.77111816 17.99581299 86.82348633 18.90178223 86.87744141 19.83520508 C86.7421875 22.1953125 86.7421875 22.1953125 84.7421875 25.1953125 C82.73291016 25.5234375 82.73291016 25.5234375 80.28125 25.4453125 C78.93788574 25.40470703 78.93788574 25.40470703 77.56738281 25.36328125 C73.06845401 25.09580259 68.59682187 24.68641316 64.1171875 24.1953125 C63.20839844 24.09992188 62.29960938 24.00453125 61.36328125 23.90625 C59.15571707 23.67387482 56.94876489 23.43684761 54.7421875 23.1953125 C55.41765625 23.7521875 56.093125 24.3090625 56.7890625 24.8828125 C63.38976842 30.52965918 68.05767418 34.64610261 69.14453125 43.45703125 C69.58379179 53.36717761 67.31374855 60.4155648 60.8046875 67.8828125 C41.40356353 85.61142578 10.12745506 84.38865077 -14.34130859 84.76635742 C-26.71003337 84.32529677 -26.71003337 84.32529677 -37.2578125 89.1953125 C-37.42468698 91.77885468 -37.42468698 91.77885468 -37.2578125 94.1953125 C-33.55163887 96.55237307 -30.31391378 96.45244778 -25.98925781 96.46655273 C-25.26334946 96.47177948 -24.5374411 96.47700623 -23.78953552 96.48239136 C-22.21432909 96.49262098 -20.63908895 96.49840996 -19.0638504 96.50027275 C-16.55540973 96.50395101 -14.04735937 96.52072443 -11.53900146 96.54103088 C-4.40709784 96.59625388 2.7248662 96.62687151 9.85693359 96.65161133 C14.22538965 96.66767425 18.59357643 96.69809922 22.96189117 96.73637581 C24.61212507 96.74788003 26.26240759 96.75395486 27.91268158 96.75405693 C59.15915786 96.75668681 59.15915786 96.75668681 70.5546875 106.6328125 C78.95316901 116.4710337 76.7421875 124.35940212 76.7421875 138.1953125 C61.5621875 138.1953125 46.3821875 138.1953125 30.7421875 138.1953125 C30.0821875 134.8953125 29.4221875 131.5953125 28.7421875 128.1953125 C21.04495254 124.34669502 9.59431019 126.03448996 1.08681107 125.99608231 C-1.33727335 125.98409803 -3.76119465 125.96460208 -6.18521118 125.94296265 C-13.06938134 125.88197982 -19.95352673 125.82741557 -26.83789062 125.79394531 C-31.07178572 125.77282423 -35.30536743 125.73739764 -39.53908157 125.69318771 C-41.13596504 125.67918007 -42.73290375 125.67034039 -44.32984543 125.66713333 C-56.76309274 125.63950806 -70.24922729 125.57688632 -80.2578125 117.1953125 C-85.28085439 111.78588277 -85.62224925 107.30167639 -85.52734375 100.140625 C-85.0858352 95.31602436 -83.28151893 92.88822076 -79.6328125 89.8359375 C-71.20866626 83.86883391 -60.20916709 82.86040136 -50.2578125 81.1953125 C-51.28519531 80.90398437 -52.31257813 80.61265625 -53.37109375 80.3125 C-67.23535049 76.26596234 -78.65269383 71.74853326 -86.63671875 58.9921875 C-90.77559379 50.51254108 -90.93348747 39.64431396 -88.1875 30.71484375 C-82.18643252 17.77811631 -72.23296555 11.32468378 -59.25146484 6.44042969 C-39.99820593 -0.35592013 -20.17107758 -0.09015756 0 0 Z M-44.078125 36.62890625 C-46.02674497 39.21631224 -46.3892899 40.97411623 -46.2578125 44.1953125 C-44.99443987 48.9961285 -43.65724385 51.2683821 -39.5078125 54.0078125 C-25.48583062 61.78363881 -3.49788722 61.13149074 11.7421875 57.1953125 C17.18025317 55.13510824 21.54944907 53.2083012 24.7421875 48.1953125 C25.92012368 44.40908908 25.80425382 42.42030291 24.7421875 38.5703125 C21.53781709 33.16293742 16.63699362 31.16024787 10.7421875 29.1953125 C4.55809513 27.9832326 -1.52929732 27.93775019 -7.8137207 27.90014648 C-9.79076472 27.88306775 -11.76751864 27.83919663 -13.74414062 27.79492188 C-24.38230097 27.72553096 -36.12227217 28.73242546 -44.078125 36.62890625 Z " fill="#C37F74" transform="translate(1118.2578125,105.8046875)"/>
<path d="M0 0 C4.61874431 4.03370337 7.82177464 7.70295774 11 13 C11.33 4.42 11.66 -4.16 12 -13 C27.18 -13 42.36 -13 58 -13 C58.75844739 5.86637873 59.10943805 24.68178304 59.125 43.5625 C59.12874634 45.14839432 59.12874634 45.14839432 59.13256836 46.7663269 C59.1385395 49.84555206 59.13693564 52.92467963 59.1328125 56.00390625 C59.13578842 57.35586594 59.13578842 57.35586594 59.13882446 58.73513794 C59.11233734 66.23305229 58.53826003 73.46435955 58 81 C43.81 81 29.62 81 15 81 C12.75 72 12.75 72 12.3671875 68.28125 C12.28339844 67.49492187 12.19960938 66.70859375 12.11328125 65.8984375 C12.03464844 65.10695313 11.95601562 64.31546875 11.875 63.5 C11.78863281 62.67757812 11.70226562 61.85515625 11.61328125 61.0078125 C11.40376148 59.00573474 11.20114956 57.00293603 11 55 C10.6596875 55.49628906 10.319375 55.99257812 9.96875 56.50390625 C-1.01761969 71.90235526 -17.71526809 79.23778939 -36.06689453 82.35058594 C-61.43687981 86.28057217 -88.65879479 84.69806603 -111 71 C-122.83083494 62.16769537 -128.79103512 52.5607602 -131 38 C-132.28582841 27.15975213 -129.19635385 16.36086265 -122.98828125 7.4921875 C-111.52129928 -6.88096475 -93.56773937 -13.34027221 -75.76953125 -15.58203125 C-50.02492137 -18.19292975 -21.21437267 -16.39292434 0 0 Z M-79.5 23.5625 C-79.995 24.366875 -80.49 25.17125 -81 26 C-81.4125 26.61875 -81.825 27.2375 -82.25 27.875 C-83.90083158 32.55235613 -83.39747315 36.66669198 -81.4375 41.125 C-77.25585465 48.59428376 -70.73118192 50.71115794 -62.8671875 53.203125 C-41.87864219 57.52803737 -13.49715215 57.09668268 5.58984375 46.58984375 C8.92544765 44.38953453 10.55499469 42.75701382 12 39 C12.74215364 34.06306495 12.57069393 30.26028243 10.5 25.6875 C0.20674023 14.62224575 -16.36268824 13.55885989 -30.70458984 12.87011719 C-57.03178949 11.7909231 -57.03178949 11.7909231 -79.5 23.5625 Z " fill="#E09133" transform="translate(959,122)"/>
<path d="M0 0 C0.77190674 0.00093658 1.54381348 0.00187317 2.33911133 0.00283813 C26.90193165 0.06736672 54.83052439 0.79676508 73.61328125 18.75390625 C82.6884671 28.51874353 84.98600322 40.12904228 84.875 53.1875 C74.64597473 53.3632936 64.41680991 53.52923295 54.1875 53.6875 C53.42018681 53.69937725 52.65287361 53.7112545 51.8623085 53.72349167 C28.26159508 54.08604875 4.66601609 54.2803631 -18.9375 54.25 C-19.94304239 54.24871597 -19.94304239 54.24871597 -20.96889877 54.24740601 C-29.0209618 54.23633179 -37.07298294 54.21676462 -45.125 54.1875 C-41.44931255 61.96752651 -36.92868614 65.44283116 -28.9765625 68.33984375 C-10.07081108 73.9597726 19.1953985 74.7158747 36.875 65.1875 C37.865 64.1975 37.865 64.1975 38.875 63.1875 C40.82388306 62.94699097 40.82388306 62.94699097 43.23291016 62.96044922 C44.13369293 62.96060028 45.03447571 62.96075134 45.96255493 62.96090698 C46.93655243 62.97122955 47.91054993 62.98155212 48.9140625 62.9921875 C49.91005463 62.9950174 50.90604675 62.99784729 51.93222046 63.00076294 C55.12160118 63.0119816 58.31070378 63.03708919 61.5 63.0625 C63.65885012 63.07252762 65.81770463 63.08165385 67.9765625 63.08984375 C73.27613699 63.11192639 78.57554863 63.14542042 83.875 63.1875 C82.87992059 70.88300451 82.87992059 70.88300451 80.5625 74.3125 C80.15386719 74.93382812 79.74523438 75.55515625 79.32421875 76.1953125 C69.07178162 90.28895923 52.54574362 95.49323841 35.875 98.1875 C11.98458197 101.84040016 -13.20985708 101.36656726 -37.125 98.1875 C-37.85702637 98.09098145 -38.58905273 97.99446289 -39.34326172 97.89501953 C-55.91629759 95.57212451 -74.68497526 89.98703772 -85.625 76.49609375 C-92.81415115 65.43154081 -94.58530918 52.99159274 -92.4375 40.125 C-89.86237595 28.71828852 -83.54066912 20.29769732 -73.9140625 13.8515625 C-52.00705515 0.78099509 -24.82998159 -0.03902617 0 0 Z M-43.125 38.1875 C-43.455 39.1775 -43.785 40.1675 -44.125 41.1875 C-16.405 41.1875 11.315 41.1875 39.875 41.1875 C35.65947939 34.16163231 29.5593303 31.44252777 21.875 29.1875 C15.34126042 27.9104157 8.83201935 27.928446 2.20214844 27.89233398 C0.75185306 27.88091813 -0.69840388 27.8606351 -2.1484375 27.83081055 C-16.17165249 27.5434759 -31.94092984 28.67723626 -43.125 38.1875 Z " fill="#AB70A8" transform="translate(1298.125,105.8125)"/>
<path d="M0 0 C10.04861891 9.00309787 13.90336696 22.21626092 14.63796997 35.26715088 C14.69364015 38.42620511 14.69047972 41.57890089 14.66015625 44.73828125 C14.65732635 45.87549622 14.65449646 47.01271118 14.65158081 48.18438721 C14.64050233 51.77017325 14.61542148 55.35569737 14.58984375 58.94140625 C14.57979799 61.39192344 14.57067495 63.8424446 14.5625 66.29296875 C14.54231622 72.25929348 14.50314411 78.2250612 14.46484375 84.19140625 C-1.04515625 84.19140625 -16.55515625 84.19140625 -32.53515625 84.19140625 C-32.57253906 80.81921875 -32.60992188 77.44703125 -32.6484375 73.97265625 C-32.69471189 70.68938894 -32.74592414 67.40623297 -32.79760742 64.12304688 C-32.8307634 61.84967879 -32.85882408 59.57623023 -32.8815918 57.30273438 C-32.91530915 54.0256944 -32.96763467 50.74938569 -33.0234375 47.47265625 C-33.02982742 46.46400513 -33.03621735 45.455354 -33.0428009 44.4161377 C-33.19333089 37.11258043 -34.11254233 31.30619558 -38.72265625 25.37890625 C-49.3863031 17.0849587 -65.88271819 18.11654399 -78.69824219 19.40966797 C-89.05863041 20.85951079 -99.47933327 24.13101418 -108.8125 28.84765625 C-111.53515625 30.19140625 -111.53515625 30.19140625 -113.53515625 30.19140625 C-113.52355469 31.40828125 -113.51195312 32.62515625 -113.5 33.87890625 C-113.3955882 50.67289172 -113.96133296 67.407075 -114.53515625 84.19140625 C-129.71515625 84.19140625 -144.89515625 84.19140625 -160.53515625 84.19140625 C-160.53515625 53.17140625 -160.53515625 22.15140625 -160.53515625 -9.80859375 C-145.35515625 -9.80859375 -130.17515625 -9.80859375 -114.53515625 -9.80859375 C-114.04015625 2.56640625 -114.04015625 2.56640625 -113.53515625 15.19140625 C-109.66982986 11.87826935 -105.95962788 8.66334795 -102.28515625 5.19140625 C-75.84914707 -18.17891447 -28.49255014 -20.32673454 0 0 Z " fill="#F4A713" transform="translate(626.53515625,118.80859375)"/>
<path d="M0 0 C2.4375 0.1875 2.4375 0.1875 3.4375 1.1875 C3.5595644 2.54449964 3.61520487 3.9075768 3.64282227 5.26977539 C3.6727401 6.57362938 3.6727401 6.57362938 3.70326233 7.90382385 C3.71997482 8.85466354 3.73668732 9.80550323 3.75390625 10.78515625 C3.77468735 11.76681259 3.79546844 12.74846893 3.81687927 13.75987244 C3.86026306 15.85232007 3.90128964 17.94481765 3.94018555 20.03735352 C3.99878104 23.18452951 4.06411283 26.3315031 4.13085938 29.47851562 C4.36136885 40.71727419 4.4847597 51.94644193 4.4375 63.1875 C13.6775 63.1875 22.9175 63.1875 32.4375 63.1875 C33.4375 66.1875 33.4375 66.1875 32.56396484 68.21435547 C32.09684082 68.98666504 31.6297168 69.75897461 31.1484375 70.5546875 C30.62580322 71.42923584 30.10316895 72.30378418 29.56469727 73.20483398 C28.98647217 74.14786377 28.40824707 75.09089355 27.8125 76.0625 C27.22073975 77.04484619 26.62897949 78.02719238 26.01928711 79.03930664 C24.17158799 82.09678254 22.30783045 85.14382287 20.4375 88.1875 C19.61064697 89.53352295 19.61064697 89.53352295 18.76708984 90.90673828 C16.11299386 95.21731432 13.44465304 99.51885403 10.76953125 103.81640625 C7.20815645 109.54446938 3.69523306 115.30148313 0.1875 121.0625 C-0.40160156 122.02357666 -0.99070313 122.98465332 -1.59765625 123.97485352 C-4.21348203 128.25465969 -6.78619251 132.53964048 -9.19921875 136.9375 C-9.59399414 137.64277832 -9.98876953 138.34805664 -10.39550781 139.07470703 C-11.10453327 140.35076478 -11.79455454 141.63767543 -12.45996094 142.93701172 C-13.40234375 144.6171875 -13.40234375 144.6171875 -15.5625 147.1875 C-19.25390625 148.1328125 -19.25390625 148.1328125 -22.5625 148.1875 C-24.33003535 146.41996465 -23.73336061 143.87191194 -23.76782227 141.47436523 C-23.78776749 140.2531749 -23.80771271 139.03198456 -23.82826233 137.77378845 C-23.84524791 136.43122487 -23.86212667 135.08865993 -23.87890625 133.74609375 C-23.89946947 132.37988139 -23.92046577 131.01367549 -23.94187927 129.6474762 C-23.99716535 126.04555476 -24.04654563 122.44357529 -24.09472656 118.84155273 C-24.14489403 115.16840428 -24.20060485 111.49534045 -24.25585938 107.82226562 C-24.36352082 100.61074868 -24.46494787 93.39916153 -24.5625 86.1875 C-25.30935059 86.16244385 -26.05620117 86.1373877 -26.82568359 86.11157227 C-30.19647267 85.99581787 -33.56696783 85.87299872 -36.9375 85.75 C-38.113125 85.71068359 -39.28875 85.67136719 -40.5 85.63085938 C-41.62148438 85.58896484 -42.74296875 85.54707031 -43.8984375 85.50390625 C-44.93532715 85.46724854 -45.9722168 85.43059082 -47.04052734 85.39282227 C-49.5625 85.1875 -49.5625 85.1875 -51.5625 84.1875 C-51.03574778 79.58244714 -49.86297882 76.52104061 -47.4140625 72.6015625 C-46.74769775 71.52165039 -46.08133301 70.44173828 -45.39477539 69.32910156 C-44.85652634 68.47161316 -44.85652634 68.47161316 -44.30740356 67.59680176 C-42.36423845 64.50082722 -40.45270185 61.3853183 -38.53515625 58.2734375 C-37.92942024 57.29370972 -37.92942024 57.29370972 -37.31144714 56.29418945 C-33.06750095 49.4184402 -28.95469019 42.46672785 -24.84780884 35.50854492 C-14.01007472 17.15290869 -14.01007472 17.15290869 -8.5 8.3125 C-8.11271729 7.68891602 -7.72543457 7.06533203 -7.32641602 6.42285156 C-3.43814781 0.25157179 -3.43814781 0.25157179 0 0 Z " fill="#F88848" transform="translate(98.5625,62.8125)"/>
<path d="M0 0 C0.99 0 1.98 0 3 0 C1.45246025 5.82214648 -1.54991114 10.41187283 -4.75 15.4375 C-5.9370758 17.32757392 -7.12324312 19.21821867 -8.30859375 21.109375 C-8.9207373 22.08326172 -9.53288086 23.05714844 -10.16357422 24.06054688 C-13.08931673 28.74360189 -15.95056958 33.46527385 -18.8125 38.1875 C-22.62335491 44.46595104 -26.44676542 50.73624204 -30.30078125 56.98828125 C-30.66184464 57.5740947 -31.02290802 58.15990814 -31.39491272 58.76347351 C-33.15187107 61.61320039 -34.91055349 64.46183958 -36.67114258 67.30932617 C-37.30818115 68.34162354 -37.94521973 69.3739209 -38.6015625 70.4375 C-39.19831787 71.40171875 -39.79507324 72.3659375 -40.40991211 73.359375 C-41.76199731 75.60475402 -43.00858662 77.8703099 -44.23046875 80.1875 C-46 83 -46 83 -49.6875 84 C-50.780625 84 -51.87375 84 -53 84 C-54.76753535 82.23246465 -54.17086061 79.68441194 -54.20532227 77.28686523 C-54.22526749 76.0656749 -54.24521271 74.84448456 -54.26576233 73.58628845 C-54.28274791 72.24372487 -54.29962667 70.90115993 -54.31640625 69.55859375 C-54.33696947 68.19238139 -54.35796577 66.82617549 -54.37937927 65.4599762 C-54.43466535 61.85805476 -54.48404563 58.25607529 -54.53222656 54.65405273 C-54.58239403 50.98090428 -54.63810485 47.30784045 -54.69335938 43.63476562 C-54.80102082 36.42324868 -54.90244787 29.21166153 -55 22 C-55.74685059 21.97494385 -56.49370117 21.9498877 -57.26318359 21.92407227 C-60.63397267 21.80831787 -64.00446783 21.68549872 -67.375 21.5625 C-68.550625 21.52318359 -69.72625 21.48386719 -70.9375 21.44335938 C-72.61972656 21.38051758 -72.61972656 21.38051758 -74.3359375 21.31640625 C-75.37282715 21.27974854 -76.4097168 21.24309082 -77.47802734 21.20532227 C-80 21 -80 21 -82 20 C-81.57202798 14.29370646 -79.15654048 10.58921384 -76 6 C-75.67 7.32 -75.34 8.64 -75 10 C-75.66 10 -76.32 10 -77 10 C-77.66 12.31 -78.32 14.62 -79 17 C-78.25314941 17.01981934 -77.50629883 17.03963867 -76.73681641 17.06005859 C-73.36584395 17.15508211 -69.99551071 17.26485259 -66.625 17.375 C-65.449375 17.4059375 -64.27375 17.436875 -63.0625 17.46875 C-61.94101563 17.50742188 -60.81953125 17.54609375 -59.6640625 17.5859375 C-58.62717285 17.6173584 -57.5902832 17.6487793 -56.52197266 17.68115234 C-54 18 -54 18 -52 20 C-50.95486073 26.65549635 -50.86617857 33.21648199 -50.90234375 39.94140625 C-50.9037587 40.94968979 -50.90517365 41.95797333 -50.90663147 42.99681091 C-50.91218395 46.18540542 -50.92472739 49.37392708 -50.9375 52.5625 C-50.94252115 54.73762919 -50.94708298 56.91275949 -50.95117188 59.08789062 C-50.96213777 64.39195151 -50.97882786 69.69597055 -51 75 C-48.44908052 72.5479244 -46.27555303 70.15722586 -44.3359375 67.19921875 C-43.85842041 66.47653809 -43.38090332 65.75385742 -42.88891602 65.00927734 C-42.38932373 64.24309082 -41.88973145 63.4769043 -41.375 62.6875 C-40.30870488 61.0689372 -39.24229679 59.45044881 -38.17578125 57.83203125 C-37.6442041 57.0220166 -37.11262695 56.21200195 -36.56494141 55.37744141 C-33.84125842 51.23965281 -31.07496332 47.13036539 -28.31591797 43.01611328 C-26.13023373 39.74253191 -24.02673309 36.43644925 -22 33.0625 C-21.34 32.051875 -20.68 31.04125 -20 30 C-19.34 30 -18.68 30 -18 30 C-17.9175 29.278125 -17.835 28.55625 -17.75 27.8125 C-17 25 -17 25 -15.3046875 22.8984375 C-12.27419674 19.08721014 -9.86774712 14.98818469 -7.375 10.8125 C-6.40627522 9.19243527 -5.43503403 7.57387181 -4.4609375 5.95703125 C-4.03603027 5.24522705 -3.61112305 4.53342285 -3.17333984 3.80004883 C-2 2 -2 2 0 0 Z " fill="#E76A6A" transform="translate(129,127)"/>
<path d="M0 0 C0.99 0 1.98 0 3 0 C3.16983263 6.11551494 3.33011238 12.23118539 3.48217773 18.34716797 C3.5349978 20.42047585 3.59026602 22.49372306 3.64819336 24.56689453 C3.98768327 36.78262713 4.06679026 48.8170105 3 61 C1.68 60.67 0.36 60.34 -1 60 C-1.02312821 52.32463373 -1.04091753 44.64927104 -1.05181217 36.97387791 C-1.05703995 33.41022578 -1.06413569 29.84659743 -1.07543945 26.28295898 C-1.08834176 22.18993903 -1.09322906 18.0969442 -1.09765625 14.00390625 C-1.10281754 12.71851456 -1.10797882 11.43312286 -1.11329651 10.10877991 C-1.11337204 8.92763107 -1.11344757 7.74648224 -1.11352539 6.52954102 C-1.115746 5.48363297 -1.11796661 4.43772491 -1.12025452 3.36012268 C-1 1 -1 1 0 0 Z " fill="#FAB061" transform="translate(99,65)"/>
<path d="M0 0 C0.33 1.32 0.66 2.64 1 4 C0.34 4 -0.32 4 -1 4 C-1.66 6.31 -2.32 8.62 -3 11 C-2.25314941 11.01981934 -1.50629883 11.03963867 -0.73681641 11.06005859 C2.63415605 11.15508211 6.00448929 11.26485259 9.375 11.375 C10.550625 11.4059375 11.72625 11.436875 12.9375 11.46875 C14.05898437 11.50742188 15.18046875 11.54609375 16.3359375 11.5859375 C17.37282715 11.6173584 18.4097168 11.6487793 19.47802734 11.68115234 C22 12 22 12 24 14 C25.23803437 21.55357682 25.14982539 29.11205366 25.125 36.75 C25.13080078 38.55791016 25.13080078 38.55791016 25.13671875 40.40234375 C25.13542969 41.56378906 25.13414063 42.72523438 25.1328125 43.921875 C25.13168457 44.96956055 25.13055664 46.01724609 25.12939453 47.09667969 C25.00681149 49.84716552 24.58604791 52.31648804 24 55 C23.78301513 57.43505237 23.59709255 59.87301384 23.4375 62.3125 C23.35371094 63.56675781 23.26992187 64.82101563 23.18359375 66.11328125 C23.12300781 67.06589844 23.06242187 68.01851563 23 69 C22.67 69 22.34 69 22 69 C21.505 42.765 21.505 42.765 21 16 C12.75 15.67 4.5 15.34 -4 15 C-4.66 14.67 -5.32 14.34 -6 14 C-5.57202798 8.29370646 -3.15654048 4.58921384 0 0 Z " fill="#D96D3F" transform="translate(53,133)"/>
<path d="M0 0 C0.33 0.66 0.66 1.32 1 2 C-0.09228516 4.21142578 -0.09228516 4.21142578 -1.7890625 6.9453125 C-2.40136719 7.94046875 -3.01367188 8.935625 -3.64453125 9.9609375 C-4.29808594 11.00507813 -4.95164062 12.04921875 -5.625 13.125 C-6.25535156 14.1459375 -6.88570312 15.166875 -7.53515625 16.21875 C-9.34819574 19.15127541 -11.17188174 22.07685633 -13 25 C-13.52045898 25.83370117 -14.04091797 26.66740234 -14.57714844 27.52636719 C-15.71700925 29.35159244 -16.858309 31.17591898 -18 33 C-17.34 33.66 -16.68 34.32 -16 35 C-17.66611905 35.042721 -19.33382885 35.04063832 -21 35 C-22 34 -22 34 -22.0534668 31.93041992 C-21.94092076 29.01555668 -21.82153867 26.10146386 -21.6875 23.1875 C-21.65205078 22.17623047 -21.61660156 21.16496094 -21.58007812 20.12304688 C-21.53689453 19.14787109 -21.49371094 18.17269531 -21.44921875 17.16796875 C-21.41143311 16.27360107 -21.37364746 15.3792334 -21.3347168 14.45776367 C-21 12 -21 12 -19 8 C-19 13.94 -19 19.88 -19 26 C-16.1549429 23.1549429 -14.21359284 21.06080438 -12.08984375 17.8125 C-11.57486328 17.03132813 -11.05988281 16.25015625 -10.52929688 15.4453125 C-10.00400391 14.63835937 -9.47871094 13.83140625 -8.9375 13 C-7.88512964 11.39516725 -6.8317764 9.79097851 -5.77734375 8.1875 C-5.31577881 7.47980469 -4.85421387 6.77210938 -4.37866211 6.04296875 C-2.98319967 3.97510446 -1.51311223 1.98294848 0 0 Z " fill="#E55545" transform="translate(97,176)"/>
<path d="M0 0 C0.78375 0.04125 1.5675 0.0825 2.375 0.125 C2.705 0.785 3.035 1.445 3.375 2.125 C2.446875 2.5375 1.51875 2.95 0.5625 3.375 C-2.55187186 5.08485121 -3.66719635 6.2861847 -5.625 9.125 C-6.285 9.125 -6.945 9.125 -7.625 9.125 C-7.7075 9.785 -7.79 10.445 -7.875 11.125 C-8.87259791 15.11539163 -10.69666683 18.51049643 -12.625 22.125 C-13.285 22.125 -13.945 22.125 -14.625 22.125 C-14.625 22.785 -14.625 23.445 -14.625 24.125 C-15.285 24.125 -15.945 24.125 -16.625 24.125 C-16.955 25.775 -17.285 27.425 -17.625 29.125 C-18.285 29.125 -18.945 29.125 -19.625 29.125 C-19.625 30.115 -19.625 31.105 -19.625 32.125 C-20.285 32.125 -20.945 32.125 -21.625 32.125 C-20.18607312 28.22731127 -18.35534844 24.79842537 -16.21875 21.23828125 C-15.22681641 19.5840918 -15.22681641 19.5840918 -14.21484375 17.89648438 C-13.87179199 17.32889404 -13.52874023 16.76130371 -13.17529297 16.17651367 C-12.12355014 14.43509941 -11.07898364 12.68952718 -10.03515625 10.94335938 C-3.551659 0.16912662 -3.551659 0.16912662 0 0 Z " fill="#DB8C40" transform="translate(98.625,62.875)"/>
<path d="M0 0 C0.33 0.66 0.66 1.32 1 2 C-0.1081543 4.27490234 -0.1081543 4.27490234 -1.82421875 7.0859375 C-2.44103516 8.09914062 -3.05785156 9.11234375 -3.69335938 10.15625 C-4.35142578 11.2184375 -5.00949219 12.280625 -5.6875 13.375 C-6.32623047 14.42945313 -6.96496094 15.48390625 -7.62304688 16.5703125 C-10.4505823 21.17858119 -13.02863947 25.28817351 -17 29 C-15.63485034 22.64908639 -12.73778008 18.11346877 -9.0625 12.8125 C-8.25522461 11.62237305 -8.25522461 11.62237305 -7.43164062 10.40820312 C-5.02806711 6.8784176 -2.57919795 3.40416025 0 0 Z " fill="#F46353" transform="translate(97,176)"/>
<path d="M0 0 C1.12405492 3.37445594 1.09749922 3.80066827 -0.58203125 7.234375 C-1.3125668 8.41436889 -2.05659929 9.58609197 -2.8125 10.75 C-3.18181641 11.35199219 -3.55113281 11.95398438 -3.93164062 12.57421875 C-4.89016178 14.09202066 -5.93906151 15.55193406 -7 17 C-7.66 17 -8.32 17 -9 17 C-9.28875 17.804375 -9.5775 18.60875 -9.875 19.4375 C-11 22 -11 22 -13 23 C-11.73294681 19.63584449 -10.28886807 16.62968211 -8.3984375 13.57421875 C-7.90859375 12.77822266 -7.41875 11.98222656 -6.9140625 11.16210938 C-6.40617187 10.34548828 -5.89828125 9.52886719 -5.375 8.6875 C-4.859375 7.85154297 -4.34375 7.01558594 -3.8125 6.15429688 C-2.54512996 4.10068801 -1.27421427 2.04936659 0 0 Z " fill="#D67C3C" transform="translate(67,110)"/>
<path d="M0 0 C0.33 0.66 0.66 1.32 1 2 C-0.36125 2.61875 -0.36125 2.61875 -1.75 3.25 C-4.79665618 4.89050718 -6.71126806 6.44718361 -9 9 C-8.4 3.6 -8.4 3.6 -6.75 1.125 C-4.41786614 -0.37422891 -2.71628175 -0.22023906 0 0 Z " fill="#DE9545" transform="translate(101,63)"/>
<path d="M0 0 C0.66 0.33 1.32 0.66 2 1 C-1.96 4.96 -5.92 8.92 -10 13 C-10 8.83248505 -7.76127698 6.85829482 -5 4 C-3.36927384 2.62294236 -1.7133562 1.27277889 0 0 Z " fill="#A66D75" transform="translate(1222,121)"/>
<path d="M0 0 C0.66 0.99 1.32 1.98 2 3 C1.01 4.485 1.01 4.485 0 6 C0.66 6.66 1.32 7.32 2 8 C0.35 8 -1.3 8 -3 8 C-2.37240135 5.07120629 -1.41377341 2.63904371 0 0 Z " fill="#D95B4E" transform="translate(79,203)"/>
</svg>
